<svg version="1.1" xmlns="http://www.w3.org/2000/svg" viewBox="0 0 1115.99609375 607.80859375" width="1115.99609375" height="607.80859375">
  <!-- svg-source:excalidraw -->
  
  <defs>
    <style>
      @font-face {
        font-family: "Virgil";
        src: url("https://unpkg.com/@zsviczian/excalidraw@0.11.0-obsidian-25/dist/excalidraw-assets/Virgil.woff2");
      }
      @font-face {
        font-family: "Cascadia";
        src: url("https://unpkg.com/@zsviczian/excalidraw@0.11.0-obsidian-25/dist/excalidraw-assets/Cascadia.woff2");
      }
    </style>
  </defs>
  <rect x="0" y="0" width="1115.99609375" height="607.80859375" fill="#ffffff"/><g stroke-linecap="round" transform="translate(10 10) rotate(0 122.763671875 134.328125)"><path d="M0.06 -1.37 C55.85 -0.3, 112.09 1.68, 244.07 0.19 M0.39 -0.81 C79.86 0.75, 159.52 0.39, 245.19 -0.29 M244.31 -1.3 C246.06 64.39, 247.92 127.6, 246.95 268.95 M244.76 0.17 C244.9 102.73, 243.82 205.22, 245.53 268.45 M243.97 267.09 C183.91 270.8, 120.81 270.32, 0.34 268.38 M246.22 269.11 C151.81 269.66, 58.24 270.57, -0.16 268.7 M-0.13 269.93 C-2.03 169.73, -0.48 73.1, -1.38 0.9 M-0.26 267.9 C2.03 179.76, 1.2 90.52, -0.07 -0.25" stroke="#000000" stroke-width="1" fill="none"/></g><g stroke-linecap="round" transform="translate(413.29296875 18.72265625) rotate(0 117.662109375 144.501953125)"><path d="M-1.55 1.52 C56.8 0.21, 112 -0.06, 233.68 0.36 M0.26 0.01 C88.55 0.83, 177.39 1.42, 234.53 -0.8 M236.35 0.31 C237.19 109.23, 238.27 216.96, 236.59 289.84 M235.89 -0.15 C234.59 88.32, 235 175.53, 235.26 289.61 M235.14 287.53 C177.1 290.52, 115.71 288.78, -0.55 287.38 M235 288.93 C149.75 288.62, 64.88 287.6, 0.61 289.33 M-0.2 288.97 C-0.22 199.32, -0.14 108.62, -0.95 0.88 M0.49 289.52 C-0.41 204.49, 0.03 120.84, -0.64 0.34" stroke="#000000" stroke-width="1" fill="none"/></g><g stroke-linecap="round" transform="translate(772.72265625 19.48828125) rotate(0 166.63671875 146.4296875)"><path d="M1.32 0.77 C69.46 -1.38, 136.86 -0.56, 334.02 0.87 M-0.24 0.17 C128.49 -0.22, 255.99 0.34, 333.68 -0.14 M332.1 0.75 C334.87 84.05, 335.9 171.17, 332.18 291.77 M333.29 -0.33 C330.88 78.13, 330.93 156.83, 333.41 292.39 M332.62 292.72 C208.89 293.08, 83.73 293.28, -1.07 292.3 M333.24 292.53 C254.85 293.11, 175.1 292.12, -0.06 292.59 M-0.04 293.03 C-1.9 229.1, -0.43 166.92, 0.77 0.25 M0.44 292.95 C0.11 184.84, -0.9 75.02, -0.39 0.14" stroke="#000000" stroke-width="1" fill="none"/></g><g stroke-linecap="round" transform="translate(48.65625 194.27734375) rotate(0 179.904296875 201.765625)"><path d="M0.03 -0.56 C95.58 -1.53, 191.74 -0.68, 360.04 -0.8 M-0.3 -0.07 C134.01 -0.27, 267.65 -0.17, 359.31 -0.26 M359.76 -0.55 C361.87 96.26, 360.38 190.1, 359.71 403.09 M359.79 0.06 C360.49 86.61, 361.05 173.81, 360.1 403.63 M360.56 403.68 C227.5 405.86, 92.4 403.73, -0.66 403.78 M360.2 403.89 C259.82 405.05, 160.21 405.12, 0.39 403.11 M-0.04 403.54 C2.24 273.73, 2.29 144.69, -0.98 0.84 M0.17 404.04 C1.1 271.95, 1.06 139.24, -0.54 -0.38" stroke="#000000" stroke-width="1" fill="none"/></g></svg>